<mxfile host="app.diagrams.net" modified="2021-10-24T12:00:25.534Z" agent="5.0 (Macintosh; Intel Mac OS X 10_15_2) AppleWebKit/537.36 (KHTML, like Gecko) Chrome/94.0.4606.81 Safari/537.36" etag="U-F0_mAkvkj_cs90Ke4-" version="15.5.5" type="github">
  <diagram id="nrhkv89WRPYNyi5R9gv3" name="Page-1">
    <mxGraphModel dx="2573" dy="996" grid="1" gridSize="10" guides="1" tooltips="1" connect="1" arrows="1" fold="1" page="1" pageScale="1" pageWidth="827" pageHeight="1169" math="0" shadow="0">
      <root>
        <mxCell id="0" />
        <mxCell id="1" parent="0" />
        <mxCell id="Nq8M5jpp8uqmLhBTmS_X-75" value="" style="rounded=0;whiteSpace=wrap;html=1;fontSize=18;" parent="1" vertex="1">
          <mxGeometry x="2150" y="1845" width="275" height="155" as="geometry" />
        </mxCell>
        <mxCell id="Nq8M5jpp8uqmLhBTmS_X-68" value="" style="rounded=0;whiteSpace=wrap;html=1;fontSize=18;" parent="1" vertex="1">
          <mxGeometry x="1780" y="1760" width="275" height="240" as="geometry" />
        </mxCell>
        <mxCell id="2_ZotJ4DdZBRaaGF1hpQ-7" value="" style="rounded=0;whiteSpace=wrap;html=1;fontSize=24;" parent="1" vertex="1">
          <mxGeometry x="-121.58" y="1730" width="480" height="316" as="geometry" />
        </mxCell>
        <mxCell id="0Eh8W8xkV04Ss9iOJh_o-1" value="" style="endArrow=none;dashed=1;html=1;strokeColor=#000000;strokeWidth=2;dashPattern=1 2;" parent="1" edge="1">
          <mxGeometry width="50" height="50" relative="1" as="geometry">
            <mxPoint x="-73" y="800" as="sourcePoint" />
            <mxPoint x="757" y="800" as="targetPoint" />
          </mxGeometry>
        </mxCell>
        <mxCell id="0Eh8W8xkV04Ss9iOJh_o-2" value="" style="rounded=1;whiteSpace=wrap;html=1;shadow=1;" parent="1" vertex="1">
          <mxGeometry x="507" y="566" width="240" height="205" as="geometry" />
        </mxCell>
        <mxCell id="0Eh8W8xkV04Ss9iOJh_o-3" value="" style="rounded=1;whiteSpace=wrap;html=1;shadow=1;dashed=1;" parent="1" vertex="1">
          <mxGeometry x="-100" y="570" width="120" height="104" as="geometry" />
        </mxCell>
        <mxCell id="0Eh8W8xkV04Ss9iOJh_o-4" value="" style="rounded=1;whiteSpace=wrap;html=1;shadow=1;" parent="1" vertex="1">
          <mxGeometry x="517" y="820" width="240" height="365" as="geometry" />
        </mxCell>
        <mxCell id="0Eh8W8xkV04Ss9iOJh_o-5" value="" style="rounded=1;whiteSpace=wrap;html=1;fillColor=#FFB366;strokeColor=#d6b656;shadow=1;" parent="1" vertex="1">
          <mxGeometry x="90" y="820" width="385.25" height="160" as="geometry" />
        </mxCell>
        <mxCell id="0Eh8W8xkV04Ss9iOJh_o-6" value="" style="rounded=1;whiteSpace=wrap;html=1;fillColor=#FFB366;strokeColor=#d6b656;shadow=1;" parent="1" vertex="1">
          <mxGeometry x="95" y="570" width="360" height="90" as="geometry" />
        </mxCell>
        <mxCell id="0Eh8W8xkV04Ss9iOJh_o-7" value="&lt;b&gt;idle-mtop-search： 搜索业务层&lt;/b&gt;" style="text;html=1;resizable=0;autosize=1;align=center;verticalAlign=middle;points=[];fillColor=none;strokeColor=none;rounded=0;shadow=1;" parent="1" vertex="1">
          <mxGeometry x="165" y="575" width="190" height="20" as="geometry" />
        </mxCell>
        <mxCell id="0Eh8W8xkV04Ss9iOJh_o-8" value="" style="rounded=1;whiteSpace=wrap;html=1;fillColor=#FFB366;strokeColor=#d6b656;shadow=1;" parent="1" vertex="1">
          <mxGeometry x="95" y="691" width="360" height="94" as="geometry" />
        </mxCell>
        <mxCell id="0Eh8W8xkV04Ss9iOJh_o-9" value="&lt;b&gt;idle-search： Java网关&lt;/b&gt;" style="text;html=1;resizable=0;autosize=1;align=center;verticalAlign=middle;points=[];fillColor=none;strokeColor=none;rounded=0;shadow=1;" parent="1" vertex="1">
          <mxGeometry x="190" y="691" width="140" height="20" as="geometry" />
        </mxCell>
        <mxCell id="0Eh8W8xkV04Ss9iOJh_o-10" value="算法侧" style="rounded=1;whiteSpace=wrap;html=1;fillColor=#B9E0A5;strokeColor=#FFFFFF;shadow=1;" parent="1" vertex="1">
          <mxGeometry x="-90" y="625" width="100" height="39" as="geometry" />
        </mxCell>
        <mxCell id="0Eh8W8xkV04Ss9iOJh_o-11" value="工程侧" style="rounded=1;whiteSpace=wrap;html=1;fillColor=#FFB366;strokeColor=#d6b656;shadow=1;" parent="1" vertex="1">
          <mxGeometry x="-90" y="574" width="100" height="35" as="geometry" />
        </mxCell>
        <mxCell id="0Eh8W8xkV04Ss9iOJh_o-12" value="卡片合并" style="rounded=1;whiteSpace=wrap;html=1;fillColor=#D4E1F5;strokeColor=#FFFFFF;shadow=1;" parent="1" vertex="1">
          <mxGeometry x="280" y="610" width="90" height="40" as="geometry" />
        </mxCell>
        <mxCell id="0Eh8W8xkV04Ss9iOJh_o-13" value="业务逻辑" style="rounded=1;whiteSpace=wrap;html=1;fillColor=#D4E1F5;strokeColor=#FFFFFF;shadow=1;" parent="1" vertex="1">
          <mxGeometry x="100" y="610" width="90" height="40" as="geometry" />
        </mxCell>
        <mxCell id="0Eh8W8xkV04Ss9iOJh_o-14" value="干预、投放" style="rounded=1;whiteSpace=wrap;html=1;fillColor=#D4E1F5;strokeColor=#FFFFFF;shadow=1;" parent="1" vertex="1">
          <mxGeometry x="379" y="610" width="70" height="40" as="geometry" />
        </mxCell>
        <mxCell id="0Eh8W8xkV04Ss9iOJh_o-15" value="商业化" style="rounded=1;whiteSpace=wrap;html=1;fillColor=#D4E1F5;strokeColor=#FFFFFF;shadow=1;" parent="1" vertex="1">
          <mxGeometry x="201" y="610" width="70" height="40" as="geometry" />
        </mxCell>
        <mxCell id="0Eh8W8xkV04Ss9iOJh_o-16" value="" style="rounded=1;whiteSpace=wrap;html=1;fillColor=#FFB366;strokeColor=#d6b656;shadow=1;" parent="1" vertex="1">
          <mxGeometry x="517" y="579" width="220" height="110" as="geometry" />
        </mxCell>
        <mxCell id="0Eh8W8xkV04Ss9iOJh_o-17" value="鲲鹏（基于奥格插件）" style="rounded=1;whiteSpace=wrap;html=1;fillColor=#D4E1F5;strokeColor=#FFFFFF;shadow=1;" parent="1" vertex="1">
          <mxGeometry x="547" y="655.5" width="160" height="23.5" as="geometry" />
        </mxCell>
        <mxCell id="0Eh8W8xkV04Ss9iOJh_o-18" value="&lt;b&gt;配置投放平台&lt;/b&gt;" style="text;html=1;resizable=0;autosize=1;align=center;verticalAlign=middle;points=[];fillColor=none;strokeColor=none;rounded=0;shadow=1;" parent="1" vertex="1">
          <mxGeometry x="582" y="584" width="90" height="20" as="geometry" />
        </mxCell>
        <mxCell id="0Eh8W8xkV04Ss9iOJh_o-19" value="idleadmin" style="rounded=1;whiteSpace=wrap;html=1;fillColor=#D4E1F5;strokeColor=#FFFFFF;shadow=1;" parent="1" vertex="1">
          <mxGeometry x="627" y="619" width="80" height="28" as="geometry" />
        </mxCell>
        <mxCell id="0Eh8W8xkV04Ss9iOJh_o-20" value="引擎访问封装" style="rounded=1;whiteSpace=wrap;html=1;fillColor=#D4E1F5;strokeColor=#FFFFFF;shadow=1;" parent="1" vertex="1">
          <mxGeometry x="109" y="730" width="70" height="40" as="geometry" />
        </mxCell>
        <mxCell id="0Eh8W8xkV04Ss9iOJh_o-21" value="分桶" style="rounded=1;whiteSpace=wrap;html=1;fillColor=#D4E1F5;strokeColor=#FFFFFF;shadow=1;" parent="1" vertex="1">
          <mxGeometry x="188" y="730" width="90" height="40" as="geometry" />
        </mxCell>
        <mxCell id="0Eh8W8xkV04Ss9iOJh_o-22" value="切流" style="rounded=1;whiteSpace=wrap;html=1;fillColor=#D4E1F5;strokeColor=#FFFFFF;shadow=1;" parent="1" vertex="1">
          <mxGeometry x="288" y="730" width="80" height="40" as="geometry" />
        </mxCell>
        <mxCell id="0Eh8W8xkV04Ss9iOJh_o-23" value="告警" style="rounded=1;whiteSpace=wrap;html=1;fillColor=#D4E1F5;strokeColor=#FFFFFF;shadow=1;" parent="1" vertex="1">
          <mxGeometry x="378" y="730" width="71" height="40" as="geometry" />
        </mxCell>
        <mxCell id="0Eh8W8xkV04Ss9iOJh_o-24" value="&lt;b&gt;外部应用&lt;/b&gt;" style="rounded=1;whiteSpace=wrap;html=1;fillColor=#FFB366;strokeColor=#FFFFFF;shadow=1;" parent="1" vertex="1">
          <mxGeometry x="-90" y="717" width="100" height="45" as="geometry" />
        </mxCell>
        <mxCell id="0Eh8W8xkV04Ss9iOJh_o-25" value="" style="endArrow=classic;html=1;exitX=1;exitY=0.5;exitDx=0;exitDy=0;" parent="1" source="0Eh8W8xkV04Ss9iOJh_o-24" edge="1">
          <mxGeometry width="50" height="50" relative="1" as="geometry">
            <mxPoint x="380" y="581" as="sourcePoint" />
            <mxPoint x="110" y="740" as="targetPoint" />
          </mxGeometry>
        </mxCell>
        <mxCell id="0Eh8W8xkV04Ss9iOJh_o-26" value="&lt;span style=&quot;color: rgb(0 , 0 , 0) ; font-family: &amp;#34;helvetica&amp;#34; ; font-size: 12px ; font-style: normal ; font-weight: 400 ; letter-spacing: normal ; text-align: center ; text-indent: 0px ; text-transform: none ; word-spacing: 0px ; background-color: rgb(248 , 249 , 250) ; display: inline ; float: none&quot;&gt;summary访问&lt;/span&gt;" style="text;whiteSpace=wrap;html=1;" parent="1" vertex="1">
          <mxGeometry x="20" y="717" width="90" height="30" as="geometry" />
        </mxCell>
        <mxCell id="0Eh8W8xkV04Ss9iOJh_o-27" value="" style="endArrow=classic;html=1;exitX=0.5;exitY=1;exitDx=0;exitDy=0;entryX=0.5;entryY=0;entryDx=0;entryDy=0;" parent="1" source="0Eh8W8xkV04Ss9iOJh_o-6" target="0Eh8W8xkV04Ss9iOJh_o-8" edge="1">
          <mxGeometry width="50" height="50" relative="1" as="geometry">
            <mxPoint x="380" y="700" as="sourcePoint" />
            <mxPoint x="430" y="650" as="targetPoint" />
          </mxGeometry>
        </mxCell>
        <mxCell id="0Eh8W8xkV04Ss9iOJh_o-28" value="&lt;span style=&quot;color: rgb(0 , 0 , 0) ; font-family: &amp;#34;helvetica&amp;#34; ; font-size: 12px ; font-style: normal ; font-weight: 400 ; letter-spacing: normal ; text-align: center ; text-indent: 0px ; text-transform: none ; word-spacing: 0px ; background-color: rgb(248 , 249 , 250) ; display: inline ; float: none&quot;&gt;搜索请求&lt;/span&gt;" style="text;whiteSpace=wrap;html=1;" parent="1" vertex="1">
          <mxGeometry x="288" y="666" width="90" height="30" as="geometry" />
        </mxCell>
        <mxCell id="0Eh8W8xkV04Ss9iOJh_o-29" value="" style="rounded=1;whiteSpace=wrap;html=1;fillColor=#D4E1F5;strokeColor=#FFFFFF;shadow=1;" parent="1" vertex="1">
          <mxGeometry x="330" y="825.25" width="140" height="154.75" as="geometry" />
        </mxCell>
        <mxCell id="0Eh8W8xkV04Ss9iOJh_o-30" value="&lt;b&gt;闲鱼主搜 - TPP&lt;/b&gt;" style="text;html=1;resizable=0;autosize=1;align=center;verticalAlign=middle;points=[];fillColor=none;strokeColor=none;rounded=0;shadow=1;" parent="1" vertex="1">
          <mxGeometry x="345" y="830" width="100" height="20" as="geometry" />
        </mxCell>
        <mxCell id="0Eh8W8xkV04Ss9iOJh_o-31" value="" style="rounded=1;whiteSpace=wrap;html=1;fillColor=#D4E1F5;strokeColor=#FFFFFF;shadow=1;" parent="1" vertex="1">
          <mxGeometry x="210" y="825.25" width="115" height="134.75" as="geometry" />
        </mxCell>
        <mxCell id="0Eh8W8xkV04Ss9iOJh_o-32" value="&lt;b&gt;综合网关 (迁移中)&lt;br&gt;SPL&lt;br&gt;&lt;/b&gt;" style="text;html=1;resizable=0;autosize=1;align=center;verticalAlign=middle;points=[];fillColor=none;strokeColor=none;rounded=0;shadow=1;" parent="1" vertex="1">
          <mxGeometry x="208" y="832" width="110" height="30" as="geometry" />
        </mxCell>
        <mxCell id="0Eh8W8xkV04Ss9iOJh_o-33" value="" style="rounded=1;whiteSpace=wrap;html=1;fillColor=#D4E1F5;shadow=1;strokeColor=#FFFFFF;" parent="1" vertex="1">
          <mxGeometry x="99.5" y="825.25" width="100.5" height="134.75" as="geometry" />
        </mxCell>
        <mxCell id="0Eh8W8xkV04Ss9iOJh_o-34" value="QP&lt;br&gt;（Query Planner）" style="rounded=1;whiteSpace=wrap;html=1;fillColor=#FFFFFF;strokeColor=#000000;shadow=1;" parent="1" vertex="1">
          <mxGeometry x="340" y="852.63" width="120" height="40" as="geometry" />
        </mxCell>
        <mxCell id="0Eh8W8xkV04Ss9iOJh_o-35" value="算法重排" style="rounded=1;whiteSpace=wrap;html=1;fillColor=#FFFFFF;strokeColor=#000000;shadow=1;" parent="1" vertex="1">
          <mxGeometry x="340" y="940" width="120" height="33" as="geometry" />
        </mxCell>
        <mxCell id="0Eh8W8xkV04Ss9iOJh_o-36" value="&lt;b&gt;综合网关（在建）&lt;br&gt;TPP&lt;/b&gt;" style="text;html=1;resizable=0;autosize=1;align=center;verticalAlign=middle;points=[];fillColor=none;strokeColor=none;rounded=0;shadow=1;" parent="1" vertex="1">
          <mxGeometry x="98" y="832" width="110" height="30" as="geometry" />
        </mxCell>
        <mxCell id="0Eh8W8xkV04Ss9iOJh_o-37" value="垂搜网关&lt;br&gt;（成交价搜索...）" style="rounded=1;whiteSpace=wrap;html=1;fillColor=#FFFFFF;strokeColor=#000000;shadow=1;" parent="1" vertex="1">
          <mxGeometry x="100" y="860" width="100" height="40" as="geometry" />
        </mxCell>
        <mxCell id="0Eh8W8xkV04Ss9iOJh_o-38" value="" style="rounded=1;whiteSpace=wrap;html=1;fillColor=#FFFFFF;strokeColor=#000000;shadow=1;dashed=1;" parent="1" vertex="1">
          <mxGeometry x="100.25" y="910" width="97.75" height="40" as="geometry" />
        </mxCell>
        <mxCell id="0Eh8W8xkV04Ss9iOJh_o-39" value="Summary访问" style="rounded=1;whiteSpace=wrap;html=1;fillColor=#FFFFFF;strokeColor=#000000;shadow=1;" parent="1" vertex="1">
          <mxGeometry x="220" y="862" width="98" height="40" as="geometry" />
        </mxCell>
        <mxCell id="0Eh8W8xkV04Ss9iOJh_o-40" value="用户搜索" style="rounded=1;whiteSpace=wrap;html=1;fillColor=#FFFFFF;strokeColor=#000000;shadow=1;" parent="1" vertex="1">
          <mxGeometry x="220" y="910" width="100" height="40" as="geometry" />
        </mxCell>
        <mxCell id="0Eh8W8xkV04Ss9iOJh_o-41" value="" style="endArrow=classic;html=1;exitX=0.5;exitY=1;exitDx=0;exitDy=0;entryX=0.5;entryY=0;entryDx=0;entryDy=0;" parent="1" source="0Eh8W8xkV04Ss9iOJh_o-8" target="0Eh8W8xkV04Ss9iOJh_o-33" edge="1">
          <mxGeometry width="50" height="50" relative="1" as="geometry">
            <mxPoint x="285" y="794" as="sourcePoint" />
            <mxPoint x="295" y="710" as="targetPoint" />
          </mxGeometry>
        </mxCell>
        <mxCell id="0Eh8W8xkV04Ss9iOJh_o-42" value="" style="endArrow=classic;html=1;exitX=0.5;exitY=1;exitDx=0;exitDy=0;" parent="1" source="0Eh8W8xkV04Ss9iOJh_o-8" edge="1">
          <mxGeometry width="50" height="50" relative="1" as="geometry">
            <mxPoint x="280" y="790" as="sourcePoint" />
            <mxPoint x="275" y="824" as="targetPoint" />
          </mxGeometry>
        </mxCell>
        <mxCell id="0Eh8W8xkV04Ss9iOJh_o-43" value="" style="endArrow=classic;html=1;exitX=0.5;exitY=1;exitDx=0;exitDy=0;" parent="1" source="0Eh8W8xkV04Ss9iOJh_o-8" edge="1">
          <mxGeometry width="50" height="50" relative="1" as="geometry">
            <mxPoint x="280" y="794" as="sourcePoint" />
            <mxPoint x="400" y="820" as="targetPoint" />
          </mxGeometry>
        </mxCell>
        <mxCell id="0Eh8W8xkV04Ss9iOJh_o-44" value="" style="shape=singleArrow;direction=west;whiteSpace=wrap;html=1;rounded=1;shadow=1;strokeColor=#000000;fillColor=#FFFFFF;gradientColor=none;rotation=-30;arrowWidth=0.29769793236413683;arrowSize=0.20046510613739665;" parent="1" vertex="1">
          <mxGeometry x="159.54" y="900.3" width="65" height="17.13" as="geometry" />
        </mxCell>
        <mxCell id="0Eh8W8xkV04Ss9iOJh_o-45" value="" style="shape=singleArrow;direction=west;whiteSpace=wrap;html=1;rounded=1;shadow=1;strokeColor=#000000;fillColor=#FFFFFF;gradientColor=none;rotation=30;arrowWidth=0.29769793236413683;arrowSize=0.20046510613739665;" parent="1" vertex="1">
          <mxGeometry x="160.77" y="899.91" width="61.46" height="12.63" as="geometry" />
        </mxCell>
        <mxCell id="0Eh8W8xkV04Ss9iOJh_o-46" value="" style="rounded=1;whiteSpace=wrap;html=1;fillColor=#FFB366;strokeColor=#d6b656;shadow=1;" parent="1" vertex="1">
          <mxGeometry x="89" y="1008.1800000000001" width="389" height="188.82" as="geometry" />
        </mxCell>
        <mxCell id="0Eh8W8xkV04Ss9iOJh_o-47" value="商品主搜引擎" style="rounded=1;whiteSpace=wrap;html=1;fillColor=#D4E1F5;shadow=1;strokeColor=#FFFFFF;" parent="1" vertex="1">
          <mxGeometry x="108" y="1057" width="120" height="52.37" as="geometry" />
        </mxCell>
        <mxCell id="0Eh8W8xkV04Ss9iOJh_o-48" value="" style="shape=doubleArrow;whiteSpace=wrap;html=1;rounded=1;shadow=1;strokeColor=#000000;fillColor=#FFFFFF;gradientColor=none;" parent="1" vertex="1">
          <mxGeometry x="455" y="622.5" width="55" height="15" as="geometry" />
        </mxCell>
        <mxCell id="0Eh8W8xkV04Ss9iOJh_o-49" value="用户搜索引擎" style="rounded=1;whiteSpace=wrap;html=1;fillColor=#D4E1F5;shadow=1;strokeColor=#FFFFFF;" parent="1" vertex="1">
          <mxGeometry x="107" y="1127" width="121" height="52.37" as="geometry" />
        </mxCell>
        <mxCell id="0Eh8W8xkV04Ss9iOJh_o-50" value="优品引擎" style="rounded=1;whiteSpace=wrap;html=1;fillColor=#D4E1F5;shadow=1;strokeColor=#FFFFFF;" parent="1" vertex="1">
          <mxGeometry x="238.17" y="1057" width="114.83" height="52.37" as="geometry" />
        </mxCell>
        <mxCell id="0Eh8W8xkV04Ss9iOJh_o-51" value="Summary引擎" style="rounded=1;whiteSpace=wrap;html=1;fillColor=#D4E1F5;shadow=1;strokeColor=#FFFFFF;" parent="1" vertex="1">
          <mxGeometry x="239.37999999999997" y="1127" width="112.41" height="52.37" as="geometry" />
        </mxCell>
        <mxCell id="0Eh8W8xkV04Ss9iOJh_o-52" value="社区帖子" style="rounded=1;whiteSpace=wrap;html=1;fillColor=#D4E1F5;shadow=1;strokeColor=#FFFFFF;" parent="1" vertex="1">
          <mxGeometry x="358.41999999999996" y="1057" width="114.83" height="52.37" as="geometry" />
        </mxCell>
        <mxCell id="0Eh8W8xkV04Ss9iOJh_o-53" value="成交价搜索" style="rounded=1;whiteSpace=wrap;html=1;fillColor=#D4E1F5;shadow=1;strokeColor=#FFFFFF;" parent="1" vertex="1">
          <mxGeometry x="358.41999999999996" y="1127" width="114.83" height="52.37" as="geometry" />
        </mxCell>
        <mxCell id="0Eh8W8xkV04Ss9iOJh_o-54" value="&lt;b&gt;基于Tisplus平台的Ha3服务&lt;/b&gt;" style="text;html=1;resizable=0;autosize=1;align=center;verticalAlign=middle;points=[];fillColor=none;strokeColor=none;rounded=0;shadow=1;" parent="1" vertex="1">
          <mxGeometry x="191.79" y="1017" width="160" height="20" as="geometry" />
        </mxCell>
        <mxCell id="0Eh8W8xkV04Ss9iOJh_o-55" value="" style="endArrow=classic;html=1;" parent="1" edge="1">
          <mxGeometry width="50" height="50" relative="1" as="geometry">
            <mxPoint x="285" y="970" as="sourcePoint" />
            <mxPoint x="285" y="1012" as="targetPoint" />
          </mxGeometry>
        </mxCell>
        <mxCell id="0Eh8W8xkV04Ss9iOJh_o-56" value="" style="rounded=1;whiteSpace=wrap;html=1;fillColor=#B9E0A5;strokeColor=#FFFFFF;shadow=1;" parent="1" vertex="1">
          <mxGeometry x="527" y="831" width="220" height="88" as="geometry" />
        </mxCell>
        <mxCell id="0Eh8W8xkV04Ss9iOJh_o-57" value="&lt;b&gt;QP服务&lt;/b&gt;" style="text;html=1;resizable=0;autosize=1;align=center;verticalAlign=middle;points=[];fillColor=none;strokeColor=none;rounded=0;shadow=1;" parent="1" vertex="1">
          <mxGeometry x="602" y="839" width="60" height="20" as="geometry" />
        </mxCell>
        <mxCell id="0Eh8W8xkV04Ss9iOJh_o-58" value="类目预测" style="rounded=1;whiteSpace=wrap;html=1;fillColor=#FFFFFF;strokeColor=#000000;shadow=1;" parent="1" vertex="1">
          <mxGeometry x="537" y="871.63" width="60" height="40" as="geometry" />
        </mxCell>
        <mxCell id="0Eh8W8xkV04Ss9iOJh_o-59" value="同义词" style="rounded=1;whiteSpace=wrap;html=1;fillColor=#FFFFFF;strokeColor=#000000;shadow=1;" parent="1" vertex="1">
          <mxGeometry x="607" y="871.63" width="60" height="40" as="geometry" />
        </mxCell>
        <mxCell id="0Eh8W8xkV04Ss9iOJh_o-60" value="个性化" style="rounded=1;whiteSpace=wrap;html=1;fillColor=#FFFFFF;strokeColor=#000000;shadow=1;" parent="1" vertex="1">
          <mxGeometry x="677" y="869" width="60" height="42.63" as="geometry" />
        </mxCell>
        <mxCell id="0Eh8W8xkV04Ss9iOJh_o-61" value="" style="rounded=1;whiteSpace=wrap;html=1;fillColor=#B9E0A5;strokeColor=#FFFFFF;shadow=1;" parent="1" vertex="1">
          <mxGeometry x="527" y="1065" width="220" height="88" as="geometry" />
        </mxCell>
        <mxCell id="0Eh8W8xkV04Ss9iOJh_o-62" value="&lt;b&gt;算法重排&lt;/b&gt;" style="text;html=1;resizable=0;autosize=1;align=center;verticalAlign=middle;points=[];fillColor=none;strokeColor=none;rounded=0;shadow=1;" parent="1" vertex="1">
          <mxGeometry x="607" y="1075" width="60" height="20" as="geometry" />
        </mxCell>
        <mxCell id="0Eh8W8xkV04Ss9iOJh_o-63" value="控频率" style="rounded=1;whiteSpace=wrap;html=1;fillColor=#FFFFFF;strokeColor=#000000;shadow=1;" parent="1" vertex="1">
          <mxGeometry x="537" y="1105" width="60" height="40" as="geometry" />
        </mxCell>
        <mxCell id="0Eh8W8xkV04Ss9iOJh_o-64" value="去重" style="rounded=1;whiteSpace=wrap;html=1;fillColor=#FFFFFF;strokeColor=#000000;shadow=1;" parent="1" vertex="1">
          <mxGeometry x="607" y="1105" width="60" height="40" as="geometry" />
        </mxCell>
        <mxCell id="0Eh8W8xkV04Ss9iOJh_o-65" value="打压" style="rounded=1;whiteSpace=wrap;html=1;fillColor=#FFFFFF;strokeColor=#000000;shadow=1;" parent="1" vertex="1">
          <mxGeometry x="677" y="1105" width="60" height="40" as="geometry" />
        </mxCell>
        <mxCell id="0Eh8W8xkV04Ss9iOJh_o-66" value="" style="shape=doubleArrow;whiteSpace=wrap;html=1;rounded=1;shadow=1;strokeColor=#000000;fillColor=#FFFFFF;gradientColor=none;" parent="1" vertex="1">
          <mxGeometry x="477" y="877.63" width="40" height="15" as="geometry" />
        </mxCell>
        <mxCell id="0Eh8W8xkV04Ss9iOJh_o-67" value="KFC" style="rounded=1;whiteSpace=wrap;html=1;fillColor=#D4E1F5;strokeColor=#FFFFFF;shadow=1;" parent="1" vertex="1">
          <mxGeometry x="547" y="619" width="70" height="30" as="geometry" />
        </mxCell>
        <mxCell id="0Eh8W8xkV04Ss9iOJh_o-68" value="" style="rounded=1;whiteSpace=wrap;html=1;fillColor=#FFB366;strokeColor=#d6b656;shadow=1;" parent="1" vertex="1">
          <mxGeometry x="517" y="695" width="220" height="64" as="geometry" />
        </mxCell>
        <mxCell id="0Eh8W8xkV04Ss9iOJh_o-69" value="&lt;b&gt;外部服务&lt;/b&gt;" style="text;html=1;resizable=0;autosize=1;align=center;verticalAlign=middle;points=[];fillColor=none;strokeColor=none;rounded=0;shadow=1;" parent="1" vertex="1">
          <mxGeometry x="592" y="700" width="60" height="20" as="geometry" />
        </mxCell>
        <mxCell id="0Eh8W8xkV04Ss9iOJh_o-70" value="阿里妈妈" style="rounded=1;whiteSpace=wrap;html=1;fillColor=#D4E1F5;strokeColor=#FFFFFF;shadow=1;" parent="1" vertex="1">
          <mxGeometry x="527" y="726" width="70" height="30" as="geometry" />
        </mxCell>
        <mxCell id="0Eh8W8xkV04Ss9iOJh_o-71" value="SNS" style="rounded=1;whiteSpace=wrap;html=1;fillColor=#D4E1F5;strokeColor=#FFFFFF;shadow=1;" parent="1" vertex="1">
          <mxGeometry x="602" y="726" width="70" height="30" as="geometry" />
        </mxCell>
        <mxCell id="0Eh8W8xkV04Ss9iOJh_o-72" value="&lt;font style=&quot;font-size: 16px&quot;&gt;&lt;b&gt;...&lt;/b&gt;&lt;/font&gt;" style="rounded=1;whiteSpace=wrap;html=1;fillColor=#D4E1F5;strokeColor=#FFFFFF;shadow=1;" parent="1" vertex="1">
          <mxGeometry x="677" y="726" width="60" height="30" as="geometry" />
        </mxCell>
        <mxCell id="0Eh8W8xkV04Ss9iOJh_o-73" value="Ha3排序" style="rounded=1;whiteSpace=wrap;html=1;fillColor=#FFFFFF;strokeColor=#000000;shadow=1;" parent="1" vertex="1">
          <mxGeometry x="340" y="900" width="120" height="32.63" as="geometry" />
        </mxCell>
        <mxCell id="0Eh8W8xkV04Ss9iOJh_o-74" value="" style="rounded=1;whiteSpace=wrap;html=1;fillColor=#B9E0A5;strokeColor=#FFFFFF;shadow=1;" parent="1" vertex="1">
          <mxGeometry x="527" y="932.63" width="220" height="107.37" as="geometry" />
        </mxCell>
        <mxCell id="0Eh8W8xkV04Ss9iOJh_o-75" value="&lt;b&gt;Ha3排序&lt;/b&gt;" style="text;html=1;resizable=0;autosize=1;align=center;verticalAlign=middle;points=[];fillColor=none;strokeColor=none;rounded=0;shadow=1;" parent="1" vertex="1">
          <mxGeometry x="607" y="940" width="60" height="20" as="geometry" />
        </mxCell>
        <mxCell id="0Eh8W8xkV04Ss9iOJh_o-76" value="粗排" style="rounded=1;whiteSpace=wrap;html=1;fillColor=#FFFFFF;strokeColor=#000000;shadow=1;" parent="1" vertex="1">
          <mxGeometry x="537" y="990" width="93" height="40" as="geometry" />
        </mxCell>
        <mxCell id="0Eh8W8xkV04Ss9iOJh_o-77" value="精排/final_sort" style="rounded=1;whiteSpace=wrap;html=1;fillColor=#FFFFFF;strokeColor=#000000;shadow=1;" parent="1" vertex="1">
          <mxGeometry x="650" y="990" width="87" height="40" as="geometry" />
        </mxCell>
        <mxCell id="0Eh8W8xkV04Ss9iOJh_o-78" value="Summary服务化" style="rounded=1;whiteSpace=wrap;html=1;shadow=1;" parent="1" vertex="1">
          <mxGeometry x="-209" y="1360" width="174" height="70" as="geometry" />
        </mxCell>
        <mxCell id="0Eh8W8xkV04Ss9iOJh_o-79" value="端云一体搜索" style="rounded=1;whiteSpace=wrap;html=1;shadow=1;" parent="1" vertex="1">
          <mxGeometry x="-5" y="1360" width="174" height="70" as="geometry" />
        </mxCell>
        <mxCell id="0Eh8W8xkV04Ss9iOJh_o-80" value="垂直搜索体系搭建" style="rounded=1;whiteSpace=wrap;html=1;shadow=1;" parent="1" vertex="1">
          <mxGeometry x="194" y="1360" width="174" height="70" as="geometry" />
        </mxCell>
        <mxCell id="2_ZotJ4DdZBRaaGF1hpQ-1" value="搜索业务" style="rounded=1;whiteSpace=wrap;html=1;shadow=1;fontSize=24;" parent="1" vertex="1">
          <mxGeometry x="280" y="1550" width="174" height="70" as="geometry" />
        </mxCell>
        <mxCell id="2_ZotJ4DdZBRaaGF1hpQ-2" value="TPP 商品主搜" style="rounded=1;whiteSpace=wrap;html=1;shadow=1;fontSize=24;" parent="1" vertex="1">
          <mxGeometry x="130" y="1770" width="174" height="70" as="geometry" />
        </mxCell>
        <mxCell id="2_ZotJ4DdZBRaaGF1hpQ-3" value="qp" style="rounded=1;whiteSpace=wrap;html=1;shadow=1;fontSize=24;" parent="1" vertex="1">
          <mxGeometry x="-84" y="1770" width="174" height="70" as="geometry" />
        </mxCell>
        <mxCell id="2_ZotJ4DdZBRaaGF1hpQ-4" value="rtp" style="rounded=1;whiteSpace=wrap;html=1;shadow=1;fontSize=24;" parent="1" vertex="1">
          <mxGeometry x="-79" y="1860" width="174" height="70" as="geometry" />
        </mxCell>
        <mxCell id="2_ZotJ4DdZBRaaGF1hpQ-5" value="summary" style="rounded=1;whiteSpace=wrap;html=1;shadow=1;fontSize=24;" parent="1" vertex="1">
          <mxGeometry x="-79" y="1950" width="174" height="70" as="geometry" />
        </mxCell>
        <mxCell id="2_ZotJ4DdZBRaaGF1hpQ-8" value="" style="endArrow=classic;html=1;rounded=0;fontSize=24;exitX=0.5;exitY=1;exitDx=0;exitDy=0;entryX=0.5;entryY=0;entryDx=0;entryDy=0;" parent="1" source="2_ZotJ4DdZBRaaGF1hpQ-1" target="2_ZotJ4DdZBRaaGF1hpQ-7" edge="1">
          <mxGeometry width="50" height="50" relative="1" as="geometry">
            <mxPoint x="420" y="1990" as="sourcePoint" />
            <mxPoint x="470" y="1940" as="targetPoint" />
          </mxGeometry>
        </mxCell>
        <mxCell id="2_ZotJ4DdZBRaaGF1hpQ-9" value="" style="rounded=0;whiteSpace=wrap;html=1;fontSize=24;" parent="1" vertex="1">
          <mxGeometry x="397" y="1730" width="480" height="316" as="geometry" />
        </mxCell>
        <mxCell id="2_ZotJ4DdZBRaaGF1hpQ-10" value="极速推" style="rounded=1;whiteSpace=wrap;html=1;shadow=1;fontSize=24;" parent="1" vertex="1">
          <mxGeometry x="426" y="1773" width="422" height="230" as="geometry" />
        </mxCell>
        <mxCell id="2_ZotJ4DdZBRaaGF1hpQ-14" value="" style="endArrow=classic;html=1;rounded=0;fontSize=24;exitX=0.5;exitY=1;exitDx=0;exitDy=0;entryX=0.465;entryY=0;entryDx=0;entryDy=0;entryPerimeter=0;" parent="1" source="2_ZotJ4DdZBRaaGF1hpQ-1" target="2_ZotJ4DdZBRaaGF1hpQ-9" edge="1">
          <mxGeometry width="50" height="50" relative="1" as="geometry">
            <mxPoint x="405" y="1620" as="sourcePoint" />
            <mxPoint x="128.42000000000007" y="1740" as="targetPoint" />
          </mxGeometry>
        </mxCell>
        <mxCell id="2_ZotJ4DdZBRaaGF1hpQ-16" value="" style="rounded=0;whiteSpace=wrap;html=1;fontSize=24;" parent="1" vertex="1">
          <mxGeometry x="98" y="2530" width="521.42" height="610" as="geometry" />
        </mxCell>
        <mxCell id="2_ZotJ4DdZBRaaGF1hpQ-17" value="搜索业务" style="rounded=1;whiteSpace=wrap;html=1;shadow=1;fontSize=24;" parent="1" vertex="1">
          <mxGeometry x="261.71" y="2280" width="198.29" height="110" as="geometry" />
        </mxCell>
        <mxCell id="2_ZotJ4DdZBRaaGF1hpQ-19" value="qp" style="rounded=1;whiteSpace=wrap;html=1;shadow=1;fontSize=24;" parent="1" vertex="1">
          <mxGeometry x="161.13" y="2580" width="429" height="70" as="geometry" />
        </mxCell>
        <mxCell id="2_ZotJ4DdZBRaaGF1hpQ-20" value="主搜召回精排" style="rounded=1;whiteSpace=wrap;html=1;shadow=1;fontSize=24;" parent="1" vertex="1">
          <mxGeometry x="170.63" y="2730" width="174" height="70" as="geometry" />
        </mxCell>
        <mxCell id="2_ZotJ4DdZBRaaGF1hpQ-21" value="summary" style="rounded=1;whiteSpace=wrap;html=1;shadow=1;fontSize=24;" parent="1" vertex="1">
          <mxGeometry x="178.13" y="2850" width="402" height="70" as="geometry" />
        </mxCell>
        <mxCell id="2_ZotJ4DdZBRaaGF1hpQ-22" value="" style="endArrow=classic;html=1;rounded=0;fontSize=24;exitX=0.5;exitY=1;exitDx=0;exitDy=0;entryX=0.5;entryY=0;entryDx=0;entryDy=0;" parent="1" source="2_ZotJ4DdZBRaaGF1hpQ-17" target="2_ZotJ4DdZBRaaGF1hpQ-16" edge="1">
          <mxGeometry width="50" height="50" relative="1" as="geometry">
            <mxPoint x="411.71000000000004" y="2780" as="sourcePoint" />
            <mxPoint x="461.71000000000004" y="2730" as="targetPoint" />
          </mxGeometry>
        </mxCell>
        <mxCell id="2_ZotJ4DdZBRaaGF1hpQ-28" value="极速推" style="rounded=1;whiteSpace=wrap;html=1;shadow=1;fontSize=24;" parent="1" vertex="1">
          <mxGeometry x="400.13" y="2730" width="174" height="70" as="geometry" />
        </mxCell>
        <mxCell id="2_ZotJ4DdZBRaaGF1hpQ-29" value="混排模块" style="rounded=1;whiteSpace=wrap;html=1;shadow=1;fontSize=24;" parent="1" vertex="1">
          <mxGeometry x="174.63" y="2960" width="402" height="70" as="geometry" />
        </mxCell>
        <mxCell id="2_ZotJ4DdZBRaaGF1hpQ-30" value="混排模块" style="rounded=1;whiteSpace=wrap;html=1;shadow=1;fontSize=24;" parent="1" vertex="1">
          <mxGeometry x="-121.58" y="2060" width="1001.58" height="70" as="geometry" />
        </mxCell>
        <mxCell id="2_ZotJ4DdZBRaaGF1hpQ-31" value="" style="rounded=0;whiteSpace=wrap;html=1;fontSize=24;" parent="1" vertex="1">
          <mxGeometry x="960" y="1730" width="480" height="400" as="geometry" />
        </mxCell>
        <mxCell id="2_ZotJ4DdZBRaaGF1hpQ-32" value="直通车广告" style="rounded=1;whiteSpace=wrap;html=1;shadow=1;fontSize=24;" parent="1" vertex="1">
          <mxGeometry x="989" y="1773" width="422" height="317" as="geometry" />
        </mxCell>
        <mxCell id="2_ZotJ4DdZBRaaGF1hpQ-33" value="" style="endArrow=classic;html=1;rounded=0;fontSize=24;exitX=0.5;exitY=1;exitDx=0;exitDy=0;entryX=0.577;entryY=-0.001;entryDx=0;entryDy=0;entryPerimeter=0;" parent="1" source="2_ZotJ4DdZBRaaGF1hpQ-1" target="2_ZotJ4DdZBRaaGF1hpQ-31" edge="1">
          <mxGeometry width="50" height="50" relative="1" as="geometry">
            <mxPoint x="377" y="1630" as="sourcePoint" />
            <mxPoint x="630.2000000000003" y="1740" as="targetPoint" />
          </mxGeometry>
        </mxCell>
        <mxCell id="2_ZotJ4DdZBRaaGF1hpQ-34" value="" style="rounded=0;whiteSpace=wrap;html=1;fontSize=24;" parent="1" vertex="1">
          <mxGeometry x="770" y="2530" width="480" height="600" as="geometry" />
        </mxCell>
        <mxCell id="2_ZotJ4DdZBRaaGF1hpQ-35" value="直通车广告" style="rounded=1;whiteSpace=wrap;html=1;shadow=1;fontSize=24;" parent="1" vertex="1">
          <mxGeometry x="799" y="2573" width="422" height="497" as="geometry" />
        </mxCell>
        <mxCell id="2_ZotJ4DdZBRaaGF1hpQ-36" value="" style="endArrow=classic;html=1;rounded=0;fontSize=24;exitX=0.5;exitY=1;exitDx=0;exitDy=0;entryX=0.5;entryY=0;entryDx=0;entryDy=0;" parent="1" source="2_ZotJ4DdZBRaaGF1hpQ-17" target="2_ZotJ4DdZBRaaGF1hpQ-34" edge="1">
          <mxGeometry width="50" height="50" relative="1" as="geometry">
            <mxPoint x="377" y="1630" as="sourcePoint" />
            <mxPoint x="1246.96" y="1739.5999999999995" as="targetPoint" />
          </mxGeometry>
        </mxCell>
        <mxCell id="Nq8M5jpp8uqmLhBTmS_X-4" value="Index" style="rounded=0;whiteSpace=wrap;html=1;fontSize=18;" parent="1" vertex="1">
          <mxGeometry x="1713" y="989" width="120" height="60" as="geometry" />
        </mxCell>
        <mxCell id="Nq8M5jpp8uqmLhBTmS_X-5" value="Attribute" style="rounded=0;whiteSpace=wrap;html=1;fontSize=18;" parent="1" vertex="1">
          <mxGeometry x="1713" y="1049" width="120" height="60" as="geometry" />
        </mxCell>
        <mxCell id="Nq8M5jpp8uqmLhBTmS_X-6" value="" style="rounded=0;whiteSpace=wrap;html=1;" parent="1" vertex="1">
          <mxGeometry x="580" y="1580" width="120" height="60" as="geometry" />
        </mxCell>
        <mxCell id="Nq8M5jpp8uqmLhBTmS_X-7" value="Summary" style="rounded=0;whiteSpace=wrap;html=1;fontSize=18;" parent="1" vertex="1">
          <mxGeometry x="1713" y="1109" width="120" height="60" as="geometry" />
        </mxCell>
        <mxCell id="Nq8M5jpp8uqmLhBTmS_X-8" value="&amp;nbsp;主搜引擎" style="rounded=0;whiteSpace=wrap;html=1;fontSize=18;" parent="1" vertex="1">
          <mxGeometry x="1613" y="989" width="117" height="180" as="geometry" />
        </mxCell>
        <mxCell id="Nq8M5jpp8uqmLhBTmS_X-9" value="SPL" style="rounded=0;whiteSpace=wrap;html=1;fontSize=18;" parent="1" vertex="1">
          <mxGeometry x="1473" y="989" width="100" height="180" as="geometry" />
        </mxCell>
        <mxCell id="Nq8M5jpp8uqmLhBTmS_X-12" value="" style="endArrow=classic;html=1;rounded=0;entryX=0;entryY=0.25;entryDx=0;entryDy=0;exitX=1;exitY=0.25;exitDx=0;exitDy=0;fontSize=18;" parent="1" source="Nq8M5jpp8uqmLhBTmS_X-9" target="Nq8M5jpp8uqmLhBTmS_X-8" edge="1">
          <mxGeometry width="50" height="50" relative="1" as="geometry">
            <mxPoint x="1573" y="1059" as="sourcePoint" />
            <mxPoint x="1623" y="1009" as="targetPoint" />
          </mxGeometry>
        </mxCell>
        <mxCell id="Nq8M5jpp8uqmLhBTmS_X-13" value="" style="endArrow=classic;html=1;rounded=0;entryX=0.99;entryY=0.663;entryDx=0;entryDy=0;exitX=0;exitY=0.667;exitDx=0;exitDy=0;exitPerimeter=0;entryPerimeter=0;fontSize=18;" parent="1" source="Nq8M5jpp8uqmLhBTmS_X-8" target="Nq8M5jpp8uqmLhBTmS_X-9" edge="1">
          <mxGeometry width="50" height="50" relative="1" as="geometry">
            <mxPoint x="1583" y="1044" as="sourcePoint" />
            <mxPoint x="1623" y="1044" as="targetPoint" />
          </mxGeometry>
        </mxCell>
        <mxCell id="Nq8M5jpp8uqmLhBTmS_X-14" value="搜索业务层" style="rounded=0;whiteSpace=wrap;html=1;fontSize=18;" parent="1" vertex="1">
          <mxGeometry x="1320" y="989" width="100" height="180" as="geometry" />
        </mxCell>
        <mxCell id="Nq8M5jpp8uqmLhBTmS_X-15" value="" style="endArrow=classic;html=1;rounded=0;exitX=1;exitY=0.25;exitDx=0;exitDy=0;fontSize=18;" parent="1" source="Nq8M5jpp8uqmLhBTmS_X-14" edge="1">
          <mxGeometry width="50" height="50" relative="1" as="geometry">
            <mxPoint x="1583" y="1044" as="sourcePoint" />
            <mxPoint x="1473" y="1034" as="targetPoint" />
          </mxGeometry>
        </mxCell>
        <mxCell id="Nq8M5jpp8uqmLhBTmS_X-17" value="" style="endArrow=classic;html=1;rounded=0;exitX=0.01;exitY=0.674;exitDx=0;exitDy=0;exitPerimeter=0;fontSize=18;" parent="1" source="Nq8M5jpp8uqmLhBTmS_X-9" edge="1">
          <mxGeometry width="50" height="50" relative="1" as="geometry">
            <mxPoint x="1623" y="1119.06" as="sourcePoint" />
            <mxPoint x="1423" y="1110" as="targetPoint" />
          </mxGeometry>
        </mxCell>
        <mxCell id="Nq8M5jpp8uqmLhBTmS_X-28" value="Index" style="rounded=0;whiteSpace=wrap;html=1;fontSize=18;" parent="1" vertex="1">
          <mxGeometry x="1713" y="1260" width="120" height="40" as="geometry" />
        </mxCell>
        <mxCell id="Nq8M5jpp8uqmLhBTmS_X-29" value="Attribute" style="rounded=0;whiteSpace=wrap;html=1;fontSize=18;" parent="1" vertex="1">
          <mxGeometry x="1713" y="1300" width="120" height="40" as="geometry" />
        </mxCell>
        <mxCell id="Nq8M5jpp8uqmLhBTmS_X-30" value="Summary" style="rounded=0;whiteSpace=wrap;html=1;fontSize=18;" parent="1" vertex="1">
          <mxGeometry x="1720" y="1360" width="113" height="80" as="geometry" />
        </mxCell>
        <mxCell id="Nq8M5jpp8uqmLhBTmS_X-31" value="&amp;nbsp;主搜引擎" style="rounded=0;whiteSpace=wrap;html=1;fontSize=18;" parent="1" vertex="1">
          <mxGeometry x="1613" y="1260" width="117" height="80" as="geometry" />
        </mxCell>
        <mxCell id="Nq8M5jpp8uqmLhBTmS_X-32" value="TPP" style="rounded=0;whiteSpace=wrap;html=1;fontSize=18;" parent="1" vertex="1">
          <mxGeometry x="1470" y="1260" width="103" height="80" as="geometry" />
        </mxCell>
        <mxCell id="Nq8M5jpp8uqmLhBTmS_X-33" value="" style="endArrow=classic;html=1;rounded=0;entryX=0;entryY=0.25;entryDx=0;entryDy=0;exitX=1;exitY=0.25;exitDx=0;exitDy=0;fontSize=18;" parent="1" source="Nq8M5jpp8uqmLhBTmS_X-32" target="Nq8M5jpp8uqmLhBTmS_X-31" edge="1">
          <mxGeometry width="50" height="50" relative="1" as="geometry">
            <mxPoint x="1573" y="1330" as="sourcePoint" />
            <mxPoint x="1623" y="1280" as="targetPoint" />
          </mxGeometry>
        </mxCell>
        <mxCell id="Nq8M5jpp8uqmLhBTmS_X-34" value="" style="endArrow=classic;html=1;rounded=0;entryX=0.99;entryY=0.663;entryDx=0;entryDy=0;exitX=0;exitY=0.667;exitDx=0;exitDy=0;exitPerimeter=0;entryPerimeter=0;fontSize=18;" parent="1" source="Nq8M5jpp8uqmLhBTmS_X-31" target="Nq8M5jpp8uqmLhBTmS_X-32" edge="1">
          <mxGeometry width="50" height="50" relative="1" as="geometry">
            <mxPoint x="1583" y="1315" as="sourcePoint" />
            <mxPoint x="1623" y="1315" as="targetPoint" />
          </mxGeometry>
        </mxCell>
        <mxCell id="Nq8M5jpp8uqmLhBTmS_X-35" value="搜索业务层" style="rounded=0;whiteSpace=wrap;html=1;fontSize=18;" parent="1" vertex="1">
          <mxGeometry x="1320" y="1260" width="100" height="180" as="geometry" />
        </mxCell>
        <mxCell id="Nq8M5jpp8uqmLhBTmS_X-38" value="SPL" style="rounded=0;whiteSpace=wrap;html=1;fontSize=18;" parent="1" vertex="1">
          <mxGeometry x="1470" y="1360" width="103" height="80" as="geometry" />
        </mxCell>
        <mxCell id="Nq8M5jpp8uqmLhBTmS_X-39" value="Summary引擎" style="rounded=0;whiteSpace=wrap;html=1;fontSize=18;" parent="1" vertex="1">
          <mxGeometry x="1613" y="1360" width="117" height="80" as="geometry" />
        </mxCell>
        <mxCell id="Nq8M5jpp8uqmLhBTmS_X-41" value="" style="endArrow=classic;html=1;rounded=0;exitX=1.01;exitY=0.101;exitDx=0;exitDy=0;exitPerimeter=0;fontSize=18;" parent="1" source="Nq8M5jpp8uqmLhBTmS_X-35" edge="1">
          <mxGeometry width="50" height="50" relative="1" as="geometry">
            <mxPoint x="1583" y="1290" as="sourcePoint" />
            <mxPoint x="1470" y="1278" as="targetPoint" />
          </mxGeometry>
        </mxCell>
        <mxCell id="Nq8M5jpp8uqmLhBTmS_X-42" value="" style="endArrow=classic;html=1;rounded=0;entryX=1;entryY=0.25;entryDx=0;entryDy=0;fontSize=18;" parent="1" target="Nq8M5jpp8uqmLhBTmS_X-35" edge="1">
          <mxGeometry width="50" height="50" relative="1" as="geometry">
            <mxPoint x="1470" y="1305" as="sourcePoint" />
            <mxPoint x="1581.9700000000003" y="1323.04" as="targetPoint" />
          </mxGeometry>
        </mxCell>
        <mxCell id="Nq8M5jpp8uqmLhBTmS_X-43" value="" style="endArrow=classic;html=1;rounded=0;exitX=0;exitY=0.5;exitDx=0;exitDy=0;fontSize=18;" parent="1" source="Nq8M5jpp8uqmLhBTmS_X-38" edge="1">
          <mxGeometry width="50" height="50" relative="1" as="geometry">
            <mxPoint x="1480" y="1315" as="sourcePoint" />
            <mxPoint x="1420" y="1400" as="targetPoint" />
          </mxGeometry>
        </mxCell>
        <mxCell id="Nq8M5jpp8uqmLhBTmS_X-44" value="" style="endArrow=classic;html=1;rounded=0;exitX=1.01;exitY=0.657;exitDx=0;exitDy=0;exitPerimeter=0;fontSize=18;" parent="1" source="Nq8M5jpp8uqmLhBTmS_X-35" edge="1">
          <mxGeometry width="50" height="50" relative="1" as="geometry">
            <mxPoint x="1431" y="1288.1799999999998" as="sourcePoint" />
            <mxPoint x="1470" y="1378" as="targetPoint" />
          </mxGeometry>
        </mxCell>
        <mxCell id="Nq8M5jpp8uqmLhBTmS_X-45" value="" style="endArrow=classic;html=1;rounded=0;entryX=1;entryY=0.5;entryDx=0;entryDy=0;exitX=0;exitY=0.5;exitDx=0;exitDy=0;fontSize=18;" parent="1" source="Nq8M5jpp8uqmLhBTmS_X-39" target="Nq8M5jpp8uqmLhBTmS_X-38" edge="1">
          <mxGeometry width="50" height="50" relative="1" as="geometry">
            <mxPoint x="1623" y="1323.3600000000001" as="sourcePoint" />
            <mxPoint x="1581.9700000000003" y="1323.04" as="targetPoint" />
          </mxGeometry>
        </mxCell>
        <mxCell id="Nq8M5jpp8uqmLhBTmS_X-46" value="" style="endArrow=classic;html=1;rounded=0;entryX=0;entryY=0.25;entryDx=0;entryDy=0;exitX=1;exitY=0.25;exitDx=0;exitDy=0;fontSize=18;" parent="1" source="Nq8M5jpp8uqmLhBTmS_X-38" target="Nq8M5jpp8uqmLhBTmS_X-39" edge="1">
          <mxGeometry width="50" height="50" relative="1" as="geometry">
            <mxPoint x="1583" y="1290" as="sourcePoint" />
            <mxPoint x="1623" y="1290" as="targetPoint" />
          </mxGeometry>
        </mxCell>
        <mxCell id="Nq8M5jpp8uqmLhBTmS_X-47" value="" style="shape=flexArrow;endArrow=classic;html=1;rounded=0;width=21;endSize=8.17;fontSize=18;" parent="1" edge="1">
          <mxGeometry width="50" height="50" relative="1" as="geometry">
            <mxPoint x="1590" y="1185" as="sourcePoint" />
            <mxPoint x="1590" y="1250" as="targetPoint" />
            <Array as="points" />
          </mxGeometry>
        </mxCell>
        <mxCell id="Nq8M5jpp8uqmLhBTmS_X-51" value="&lt;span style=&quot;color: rgb(0 , 0 , 0) ; font-family: &amp;#34;helvetica&amp;#34; ; font-size: 18px ; font-style: normal ; font-weight: 400 ; letter-spacing: normal ; text-align: center ; text-indent: 0px ; text-transform: none ; word-spacing: 0px ; background-color: rgb(248 , 249 , 250) ; display: inline ; float: none&quot;&gt;&amp;nbsp;主搜&lt;/span&gt;" style="rounded=0;whiteSpace=wrap;html=1;fontSize=18;" parent="1" vertex="1">
          <mxGeometry x="2170" y="1900" width="117" height="37" as="geometry" />
        </mxCell>
        <mxCell id="Nq8M5jpp8uqmLhBTmS_X-52" value="Summary引擎" style="rounded=0;whiteSpace=wrap;html=1;fontSize=18;" parent="1" vertex="1">
          <mxGeometry x="1800" y="1910" width="240" height="80" as="geometry" />
        </mxCell>
        <mxCell id="Nq8M5jpp8uqmLhBTmS_X-55" value="外部调用方" style="rounded=0;whiteSpace=wrap;html=1;fontSize=18;" parent="1" vertex="1">
          <mxGeometry x="2147.5" y="1760" width="280" height="70" as="geometry" />
        </mxCell>
        <mxCell id="Nq8M5jpp8uqmLhBTmS_X-56" value="Index" style="rounded=0;whiteSpace=wrap;html=1;fontSize=18;" parent="1" vertex="1">
          <mxGeometry x="2030" y="2150" width="120" height="40" as="geometry" />
        </mxCell>
        <mxCell id="Nq8M5jpp8uqmLhBTmS_X-57" value="Attribute" style="rounded=0;whiteSpace=wrap;html=1;fontSize=18;" parent="1" vertex="1">
          <mxGeometry x="2030" y="2190" width="120" height="40" as="geometry" />
        </mxCell>
        <mxCell id="Nq8M5jpp8uqmLhBTmS_X-58" value="垂直引擎&lt;br&gt;" style="rounded=0;whiteSpace=wrap;html=1;fontSize=18;" parent="1" vertex="1">
          <mxGeometry x="1930" y="2150" width="117" height="80" as="geometry" />
        </mxCell>
        <mxCell id="Nq8M5jpp8uqmLhBTmS_X-60" value="TPP" style="rounded=0;whiteSpace=wrap;html=1;fontSize=18;" parent="1" vertex="1">
          <mxGeometry x="1927" y="1810" width="113" height="90" as="geometry" />
        </mxCell>
        <mxCell id="Nq8M5jpp8uqmLhBTmS_X-62" value="HSF" style="rounded=0;whiteSpace=wrap;html=1;fontSize=18;" parent="1" vertex="1">
          <mxGeometry x="1800" y="1810" width="110" height="40" as="geometry" />
        </mxCell>
        <mxCell id="Nq8M5jpp8uqmLhBTmS_X-67" value="SPL" style="rounded=0;whiteSpace=wrap;html=1;fontSize=18;" parent="1" vertex="1">
          <mxGeometry x="1800" y="1860" width="110" height="40" as="geometry" />
        </mxCell>
        <mxCell id="Nq8M5jpp8uqmLhBTmS_X-70" value="&lt;div style=&quot;text-align: center&quot;&gt;&lt;span&gt;&lt;font face=&quot;helvetica&quot;&gt;Summary服务&lt;/font&gt;&lt;/span&gt;&lt;/div&gt;" style="text;whiteSpace=wrap;html=1;fontSize=18;" parent="1" vertex="1">
          <mxGeometry x="1845" y="1770" width="150" height="120" as="geometry" />
        </mxCell>
        <mxCell id="Nq8M5jpp8uqmLhBTmS_X-71" value="&lt;font face=&quot;helvetica&quot;&gt;租房&lt;/font&gt;" style="rounded=0;whiteSpace=wrap;html=1;fontSize=18;" parent="1" vertex="1">
          <mxGeometry x="2300" y="1900" width="117" height="35" as="geometry" />
        </mxCell>
        <mxCell id="Nq8M5jpp8uqmLhBTmS_X-72" value="&lt;font face=&quot;helvetica&quot;&gt;拍卖&lt;/font&gt;" style="rounded=0;whiteSpace=wrap;html=1;fontSize=18;" parent="1" vertex="1">
          <mxGeometry x="2170" y="1950" width="120" height="32" as="geometry" />
        </mxCell>
        <mxCell id="Nq8M5jpp8uqmLhBTmS_X-74" value="&lt;font face=&quot;helvetica&quot;&gt;...&lt;/font&gt;" style="rounded=0;whiteSpace=wrap;html=1;fontSize=18;" parent="1" vertex="1">
          <mxGeometry x="2300" y="1948.75" width="117" height="31.25" as="geometry" />
        </mxCell>
        <mxCell id="Nq8M5jpp8uqmLhBTmS_X-76" value="" style="shape=flexArrow;endArrow=classic;startArrow=classic;html=1;rounded=0;fontSize=18;entryX=0;entryY=0.5;entryDx=0;entryDy=0;exitX=0.995;exitY=0.147;exitDx=0;exitDy=0;exitPerimeter=0;" parent="1" source="Nq8M5jpp8uqmLhBTmS_X-68" target="Nq8M5jpp8uqmLhBTmS_X-55" edge="1">
          <mxGeometry width="100" height="100" relative="1" as="geometry">
            <mxPoint x="2060" y="1860" as="sourcePoint" />
            <mxPoint x="2160" y="1760" as="targetPoint" />
          </mxGeometry>
        </mxCell>
        <mxCell id="Nq8M5jpp8uqmLhBTmS_X-78" value="" style="shape=flexArrow;endArrow=classic;startArrow=classic;html=1;rounded=0;fontSize=18;entryX=0;entryY=0.5;entryDx=0;entryDy=0;exitX=0.995;exitY=0.147;exitDx=0;exitDy=0;exitPerimeter=0;" parent="1" edge="1">
          <mxGeometry width="100" height="100" relative="1" as="geometry">
            <mxPoint x="2053.625" y="1922.2800000000002" as="sourcePoint" />
            <mxPoint x="2147.5" y="1922" as="targetPoint" />
          </mxGeometry>
        </mxCell>
        <mxCell id="Nq8M5jpp8uqmLhBTmS_X-80" value="&lt;span style=&quot;color: rgb(0 , 0 , 0) ; font-family: &amp;#34;helvetica&amp;#34; ; font-size: 18px ; font-style: normal ; font-weight: 400 ; letter-spacing: normal ; text-align: center ; text-indent: 0px ; text-transform: none ; word-spacing: 0px ; background-color: rgb(248 , 249 , 250) ; display: inline ; float: none&quot;&gt;搜索服务&lt;/span&gt;" style="text;whiteSpace=wrap;html=1;fontSize=18;" parent="1" vertex="1">
          <mxGeometry x="2250" y="1850" width="120" height="40" as="geometry" />
        </mxCell>
        <mxCell id="SWnNv2ghN_zAGk2i34JY-1" value="闲鱼搜索业务层" style="rounded=1;whiteSpace=wrap;html=1;shadow=1;fontSize=24;" vertex="1" parent="1">
          <mxGeometry x="2390" y="2960" width="320" height="75" as="geometry" />
        </mxCell>
        <mxCell id="SWnNv2ghN_zAGk2i34JY-2" value="" style="rounded=1;whiteSpace=wrap;html=1;shadow=1;fontSize=24;" vertex="1" parent="1">
          <mxGeometry x="2320" y="3093" width="200" height="270" as="geometry" />
        </mxCell>
        <mxCell id="SWnNv2ghN_zAGk2i34JY-3" value="商品主搜TPP" style="rounded=1;whiteSpace=wrap;html=1;shadow=1;fontSize=24;" vertex="1" parent="1">
          <mxGeometry x="2589.35" y="3093" width="198.29" height="130" as="geometry" />
        </mxCell>
        <mxCell id="SWnNv2ghN_zAGk2i34JY-4" value="" style="endArrow=classic;html=1;rounded=0;fontSize=24;exitX=0.5;exitY=1;exitDx=0;exitDy=0;entryX=0.5;entryY=0;entryDx=0;entryDy=0;" edge="1" parent="1" source="SWnNv2ghN_zAGk2i34JY-1" target="SWnNv2ghN_zAGk2i34JY-2">
          <mxGeometry width="50" height="50" relative="1" as="geometry">
            <mxPoint x="2337.855" y="3053" as="sourcePoint" />
            <mxPoint x="2987" y="3193" as="targetPoint" />
          </mxGeometry>
        </mxCell>
        <mxCell id="SWnNv2ghN_zAGk2i34JY-5" value="" style="endArrow=classic;html=1;rounded=0;fontSize=24;exitX=0.5;exitY=1;exitDx=0;exitDy=0;entryX=0.5;entryY=0;entryDx=0;entryDy=0;" edge="1" parent="1" source="SWnNv2ghN_zAGk2i34JY-1" target="SWnNv2ghN_zAGk2i34JY-3">
          <mxGeometry width="50" height="50" relative="1" as="geometry">
            <mxPoint x="2559.1450000000004" y="3033" as="sourcePoint" />
            <mxPoint x="2422.1450000000004" y="3133" as="targetPoint" />
          </mxGeometry>
        </mxCell>
        <mxCell id="SWnNv2ghN_zAGk2i34JY-6" value="租房" style="rounded=0;whiteSpace=wrap;html=1;shadow=1;fontSize=24;" vertex="1" parent="1">
          <mxGeometry x="2321" y="3163" width="199" height="50" as="geometry" />
        </mxCell>
        <mxCell id="SWnNv2ghN_zAGk2i34JY-7" value="用户" style="rounded=0;whiteSpace=wrap;html=1;shadow=1;fontSize=24;" vertex="1" parent="1">
          <mxGeometry x="2321" y="3213" width="199" height="50" as="geometry" />
        </mxCell>
        <mxCell id="SWnNv2ghN_zAGk2i34JY-8" value="拍卖" style="rounded=0;whiteSpace=wrap;html=1;shadow=1;fontSize=24;" vertex="1" parent="1">
          <mxGeometry x="2321" y="3263" width="199" height="50" as="geometry" />
        </mxCell>
        <mxCell id="SWnNv2ghN_zAGk2i34JY-9" value="...&lt;br&gt;" style="rounded=0;whiteSpace=wrap;html=1;shadow=1;fontSize=24;" vertex="1" parent="1">
          <mxGeometry x="2321" y="3313" width="199" height="50" as="geometry" />
        </mxCell>
        <mxCell id="SWnNv2ghN_zAGk2i34JY-10" value="&lt;div style=&quot;text-align: center&quot;&gt;&lt;span style=&quot;font-size: 24px&quot;&gt;&lt;font face=&quot;helvetica&quot;&gt;闲鱼垂搜VSearch&lt;/font&gt;&lt;/span&gt;&lt;/div&gt;" style="text;whiteSpace=wrap;html=1;fontSize=18;" vertex="1" parent="1">
          <mxGeometry x="2321" y="3106" width="200" height="40" as="geometry" />
        </mxCell>
        <mxCell id="SWnNv2ghN_zAGk2i34JY-12" value="" style="rounded=1;whiteSpace=wrap;html=1;shadow=1;fontSize=24;" vertex="1" parent="1">
          <mxGeometry x="1460" y="3140" width="200" height="130" as="geometry" />
        </mxCell>
        <mxCell id="SWnNv2ghN_zAGk2i34JY-13" value="商品主搜TPP" style="rounded=1;whiteSpace=wrap;html=1;shadow=1;fontSize=24;" vertex="1" parent="1">
          <mxGeometry x="1899.9999999999998" y="3140" width="198.29" height="130" as="geometry" />
        </mxCell>
        <mxCell id="SWnNv2ghN_zAGk2i34JY-20" value="&lt;div style=&quot;text-align: center&quot;&gt;&lt;span style=&quot;font-size: 24px&quot;&gt;&lt;font face=&quot;helvetica&quot;&gt;搜索SPL&lt;/font&gt;&lt;/span&gt;&lt;/div&gt;" style="text;whiteSpace=wrap;html=1;fontSize=18;" vertex="1" parent="1">
          <mxGeometry x="1503" y="3181" width="200" height="40" as="geometry" />
        </mxCell>
        <mxCell id="SWnNv2ghN_zAGk2i34JY-21" value="租房搜索" style="rounded=1;whiteSpace=wrap;html=1;shadow=1;fontSize=24;" vertex="1" parent="1">
          <mxGeometry x="1573" y="2950" width="130" height="50" as="geometry" />
        </mxCell>
        <mxCell id="SWnNv2ghN_zAGk2i34JY-22" value="商品搜索" style="rounded=1;whiteSpace=wrap;html=1;shadow=1;fontSize=24;" vertex="1" parent="1">
          <mxGeometry x="1846" y="2950" width="149" height="50" as="geometry" />
        </mxCell>
        <mxCell id="SWnNv2ghN_zAGk2i34JY-23" value="用户搜索" style="rounded=1;whiteSpace=wrap;html=1;shadow=1;fontSize=24;" vertex="1" parent="1">
          <mxGeometry x="1709.5" y="2950" width="130" height="50" as="geometry" />
        </mxCell>
        <mxCell id="SWnNv2ghN_zAGk2i34JY-24" value="idle-search" style="rounded=1;whiteSpace=wrap;html=1;shadow=1;fontSize=24;" vertex="1" parent="1">
          <mxGeometry x="1660" y="3050" width="230" height="50" as="geometry" />
        </mxCell>
        <mxCell id="SWnNv2ghN_zAGk2i34JY-25" value="" style="endArrow=classic;html=1;rounded=0;fontSize=24;exitX=0.5;exitY=1;exitDx=0;exitDy=0;entryX=0.5;entryY=0;entryDx=0;entryDy=0;" edge="1" parent="1" source="SWnNv2ghN_zAGk2i34JY-21" target="SWnNv2ghN_zAGk2i34JY-24">
          <mxGeometry width="50" height="50" relative="1" as="geometry">
            <mxPoint x="1850" y="2500" as="sourcePoint" />
            <mxPoint x="1730" y="2570" as="targetPoint" />
          </mxGeometry>
        </mxCell>
        <mxCell id="SWnNv2ghN_zAGk2i34JY-26" value="" style="endArrow=classic;html=1;rounded=0;fontSize=24;exitX=0.5;exitY=1;exitDx=0;exitDy=0;entryX=0.5;entryY=0;entryDx=0;entryDy=0;" edge="1" parent="1" source="SWnNv2ghN_zAGk2i34JY-23" target="SWnNv2ghN_zAGk2i34JY-24">
          <mxGeometry width="50" height="50" relative="1" as="geometry">
            <mxPoint x="1648" y="3010" as="sourcePoint" />
            <mxPoint x="1781" y="3060" as="targetPoint" />
          </mxGeometry>
        </mxCell>
        <mxCell id="SWnNv2ghN_zAGk2i34JY-27" value="" style="endArrow=classic;html=1;rounded=0;fontSize=24;exitX=0.5;exitY=1;exitDx=0;exitDy=0;entryX=0.5;entryY=0;entryDx=0;entryDy=0;" edge="1" parent="1" source="SWnNv2ghN_zAGk2i34JY-22" target="SWnNv2ghN_zAGk2i34JY-24">
          <mxGeometry width="50" height="50" relative="1" as="geometry">
            <mxPoint x="1648" y="3010" as="sourcePoint" />
            <mxPoint x="1787.5" y="3070" as="targetPoint" />
          </mxGeometry>
        </mxCell>
        <mxCell id="SWnNv2ghN_zAGk2i34JY-28" value="" style="endArrow=classic;html=1;rounded=0;fontSize=24;exitX=0.5;exitY=1;exitDx=0;exitDy=0;entryX=0.5;entryY=0;entryDx=0;entryDy=0;" edge="1" parent="1" source="SWnNv2ghN_zAGk2i34JY-24" target="SWnNv2ghN_zAGk2i34JY-13">
          <mxGeometry width="50" height="50" relative="1" as="geometry">
            <mxPoint x="1930.5" y="3010" as="sourcePoint" />
            <mxPoint x="1787.5" y="3070" as="targetPoint" />
          </mxGeometry>
        </mxCell>
        <mxCell id="SWnNv2ghN_zAGk2i34JY-29" value="" style="endArrow=classic;html=1;rounded=0;fontSize=24;exitX=0.5;exitY=1;exitDx=0;exitDy=0;entryX=0.5;entryY=0;entryDx=0;entryDy=0;" edge="1" parent="1" source="SWnNv2ghN_zAGk2i34JY-24" target="SWnNv2ghN_zAGk2i34JY-12">
          <mxGeometry width="50" height="50" relative="1" as="geometry">
            <mxPoint x="1930.5" y="3010" as="sourcePoint" />
            <mxPoint x="1787.5" y="3070" as="targetPoint" />
          </mxGeometry>
        </mxCell>
        <mxCell id="SWnNv2ghN_zAGk2i34JY-30" value="用户搜索TPP" style="rounded=1;whiteSpace=wrap;html=1;shadow=1;fontSize=24;" vertex="1" parent="1">
          <mxGeometry x="1679.06" y="3140" width="198.29" height="130" as="geometry" />
        </mxCell>
        <mxCell id="SWnNv2ghN_zAGk2i34JY-31" value="" style="endArrow=classic;html=1;rounded=0;fontSize=24;entryX=0.5;entryY=0;entryDx=0;entryDy=0;" edge="1" parent="1" target="SWnNv2ghN_zAGk2i34JY-30">
          <mxGeometry width="50" height="50" relative="1" as="geometry">
            <mxPoint x="1778" y="3100" as="sourcePoint" />
            <mxPoint x="2058.3550000000005" y="3150" as="targetPoint" />
          </mxGeometry>
        </mxCell>
      </root>
    </mxGraphModel>
  </diagram>
</mxfile>
